<mxfile host="Electron" agent="Mozilla/5.0 (Windows NT 10.0; Win64; x64) AppleWebKit/537.36 (KHTML, like Gecko) draw.io/26.2.2 Chrome/134.0.6998.178 Electron/35.1.2 Safari/537.36" version="26.2.2">
  <diagram name="PÃ¡gina-1" id="C9fwUjceZ_WgJra4nHqC">
    <mxGraphModel dx="858" dy="513" grid="1" gridSize="10" guides="1" tooltips="1" connect="1" arrows="1" fold="1" page="1" pageScale="1" pageWidth="827" pageHeight="1169" math="0" shadow="0">
      <root>
        <mxCell id="0" />
        <mxCell id="1" parent="0" />
        <mxCell id="UfaDsOOgGRpem-yaCqwn-3" value="" style="edgeStyle=orthogonalEdgeStyle;rounded=0;orthogonalLoop=1;jettySize=auto;html=1;" edge="1" parent="1" source="UfaDsOOgGRpem-yaCqwn-1" target="UfaDsOOgGRpem-yaCqwn-2">
          <mxGeometry relative="1" as="geometry" />
        </mxCell>
        <mxCell id="UfaDsOOgGRpem-yaCqwn-1" value="Determinar si un numero es positivo o negativo" style="ellipse;whiteSpace=wrap;html=1;" vertex="1" parent="1">
          <mxGeometry x="330" y="80" width="120" height="80" as="geometry" />
        </mxCell>
        <mxCell id="UfaDsOOgGRpem-yaCqwn-5" value="" style="edgeStyle=orthogonalEdgeStyle;rounded=0;orthogonalLoop=1;jettySize=auto;html=1;" edge="1" parent="1" source="UfaDsOOgGRpem-yaCqwn-2" target="UfaDsOOgGRpem-yaCqwn-4">
          <mxGeometry relative="1" as="geometry" />
        </mxCell>
        <mxCell id="UfaDsOOgGRpem-yaCqwn-2" value="int numero = 0;" style="shape=parallelogram;perimeter=parallelogramPerimeter;whiteSpace=wrap;html=1;fixedSize=1;" vertex="1" parent="1">
          <mxGeometry x="330" y="190" width="120" height="30" as="geometry" />
        </mxCell>
        <mxCell id="UfaDsOOgGRpem-yaCqwn-7" value="" style="edgeStyle=orthogonalEdgeStyle;rounded=0;orthogonalLoop=1;jettySize=auto;html=1;" edge="1" parent="1" source="UfaDsOOgGRpem-yaCqwn-4" target="UfaDsOOgGRpem-yaCqwn-6">
          <mxGeometry relative="1" as="geometry" />
        </mxCell>
        <mxCell id="UfaDsOOgGRpem-yaCqwn-4" value="printf(&quot;Ingrese el numero&quot;);" style="shape=document;whiteSpace=wrap;html=1;boundedLbl=1;" vertex="1" parent="1">
          <mxGeometry x="295" y="250" width="190" height="50" as="geometry" />
        </mxCell>
        <mxCell id="UfaDsOOgGRpem-yaCqwn-9" value="" style="edgeStyle=orthogonalEdgeStyle;rounded=0;orthogonalLoop=1;jettySize=auto;html=1;" edge="1" parent="1" source="UfaDsOOgGRpem-yaCqwn-6" target="UfaDsOOgGRpem-yaCqwn-8">
          <mxGeometry relative="1" as="geometry" />
        </mxCell>
        <mxCell id="UfaDsOOgGRpem-yaCqwn-6" value="scanf(&quot;%i&quot;,&amp;amp;numero);" style="shape=parallelogram;perimeter=parallelogramPerimeter;whiteSpace=wrap;html=1;fixedSize=1;" vertex="1" parent="1">
          <mxGeometry x="310" y="340" width="160" height="30" as="geometry" />
        </mxCell>
        <mxCell id="UfaDsOOgGRpem-yaCqwn-12" value="" style="edgeStyle=orthogonalEdgeStyle;rounded=0;orthogonalLoop=1;jettySize=auto;html=1;" edge="1" parent="1" source="UfaDsOOgGRpem-yaCqwn-8" target="UfaDsOOgGRpem-yaCqwn-11">
          <mxGeometry relative="1" as="geometry" />
        </mxCell>
        <mxCell id="UfaDsOOgGRpem-yaCqwn-17" value="" style="edgeStyle=orthogonalEdgeStyle;rounded=0;orthogonalLoop=1;jettySize=auto;html=1;" edge="1" parent="1" source="UfaDsOOgGRpem-yaCqwn-8" target="UfaDsOOgGRpem-yaCqwn-16">
          <mxGeometry relative="1" as="geometry" />
        </mxCell>
        <mxCell id="UfaDsOOgGRpem-yaCqwn-8" value="if&lt;div&gt;numero &amp;lt;0&amp;nbsp;&lt;/div&gt;" style="rhombus;whiteSpace=wrap;html=1;" vertex="1" parent="1">
          <mxGeometry x="340" y="410" width="100" height="80" as="geometry" />
        </mxCell>
        <mxCell id="UfaDsOOgGRpem-yaCqwn-10" value="Fin de la ejecuion" style="ellipse;whiteSpace=wrap;html=1;" vertex="1" parent="1">
          <mxGeometry x="330" y="800" width="120" height="80" as="geometry" />
        </mxCell>
        <mxCell id="UfaDsOOgGRpem-yaCqwn-14" value="" style="edgeStyle=orthogonalEdgeStyle;rounded=0;orthogonalLoop=1;jettySize=auto;html=1;" edge="1" parent="1" source="UfaDsOOgGRpem-yaCqwn-11" target="UfaDsOOgGRpem-yaCqwn-13">
          <mxGeometry relative="1" as="geometry" />
        </mxCell>
        <mxCell id="UfaDsOOgGRpem-yaCqwn-11" value="si" style="text;html=1;align=center;verticalAlign=middle;resizable=0;points=[];autosize=1;strokeColor=none;fillColor=none;" vertex="1" parent="1">
          <mxGeometry x="470" y="435" width="30" height="30" as="geometry" />
        </mxCell>
        <mxCell id="UfaDsOOgGRpem-yaCqwn-15" style="edgeStyle=orthogonalEdgeStyle;rounded=0;orthogonalLoop=1;jettySize=auto;html=1;entryX=1;entryY=0.5;entryDx=0;entryDy=0;exitX=1;exitY=0.25;exitDx=0;exitDy=0;" edge="1" parent="1" source="UfaDsOOgGRpem-yaCqwn-13" target="UfaDsOOgGRpem-yaCqwn-10">
          <mxGeometry relative="1" as="geometry">
            <mxPoint x="730" y="500" as="sourcePoint" />
            <Array as="points">
              <mxPoint x="810" y="440" />
              <mxPoint x="810" y="840" />
            </Array>
          </mxGeometry>
        </mxCell>
        <mxCell id="UfaDsOOgGRpem-yaCqwn-13" value="printf(&quot;El numero %i es negativo!!!\n&quot;, numero);" style="shape=document;whiteSpace=wrap;html=1;boundedLbl=1;" vertex="1" parent="1">
          <mxGeometry x="520" y="430" width="260" height="40" as="geometry" />
        </mxCell>
        <mxCell id="UfaDsOOgGRpem-yaCqwn-22" value="" style="edgeStyle=orthogonalEdgeStyle;rounded=0;orthogonalLoop=1;jettySize=auto;html=1;" edge="1" parent="1" source="UfaDsOOgGRpem-yaCqwn-16" target="UfaDsOOgGRpem-yaCqwn-21">
          <mxGeometry relative="1" as="geometry" />
        </mxCell>
        <mxCell id="UfaDsOOgGRpem-yaCqwn-30" value="" style="edgeStyle=orthogonalEdgeStyle;rounded=0;orthogonalLoop=1;jettySize=auto;html=1;" edge="1" parent="1" source="UfaDsOOgGRpem-yaCqwn-16" target="UfaDsOOgGRpem-yaCqwn-29">
          <mxGeometry relative="1" as="geometry" />
        </mxCell>
        <mxCell id="UfaDsOOgGRpem-yaCqwn-16" value="else if&lt;div&gt;numero == 0&amp;nbsp;&lt;/div&gt;" style="rhombus;whiteSpace=wrap;html=1;" vertex="1" parent="1">
          <mxGeometry x="340" y="520" width="100" height="80" as="geometry" />
        </mxCell>
        <mxCell id="UfaDsOOgGRpem-yaCqwn-24" style="edgeStyle=orthogonalEdgeStyle;rounded=0;orthogonalLoop=1;jettySize=auto;html=1;entryX=1;entryY=0;entryDx=0;entryDy=0;" edge="1" parent="1" source="UfaDsOOgGRpem-yaCqwn-18" target="UfaDsOOgGRpem-yaCqwn-10">
          <mxGeometry relative="1" as="geometry">
            <Array as="points">
              <mxPoint x="630" y="812" />
            </Array>
          </mxGeometry>
        </mxCell>
        <mxCell id="UfaDsOOgGRpem-yaCqwn-18" value="printf(&quot;El numero es %i\n&quot;, numero);" style="shape=document;whiteSpace=wrap;html=1;boundedLbl=1;" vertex="1" parent="1">
          <mxGeometry x="520" y="540" width="220" height="40" as="geometry" />
        </mxCell>
        <mxCell id="UfaDsOOgGRpem-yaCqwn-23" value="" style="edgeStyle=orthogonalEdgeStyle;rounded=0;orthogonalLoop=1;jettySize=auto;html=1;" edge="1" parent="1" source="UfaDsOOgGRpem-yaCqwn-21" target="UfaDsOOgGRpem-yaCqwn-18">
          <mxGeometry relative="1" as="geometry" />
        </mxCell>
        <mxCell id="UfaDsOOgGRpem-yaCqwn-21" value="si" style="text;html=1;align=center;verticalAlign=middle;resizable=0;points=[];autosize=1;strokeColor=none;fillColor=none;" vertex="1" parent="1">
          <mxGeometry x="470" y="545" width="30" height="30" as="geometry" />
        </mxCell>
        <mxCell id="UfaDsOOgGRpem-yaCqwn-32" value="" style="edgeStyle=orthogonalEdgeStyle;rounded=0;orthogonalLoop=1;jettySize=auto;html=1;" edge="1" parent="1" source="UfaDsOOgGRpem-yaCqwn-29" target="UfaDsOOgGRpem-yaCqwn-31">
          <mxGeometry relative="1" as="geometry" />
        </mxCell>
        <mxCell id="UfaDsOOgGRpem-yaCqwn-29" value="no" style="text;html=1;align=center;verticalAlign=middle;resizable=0;points=[];autosize=1;strokeColor=none;fillColor=none;" vertex="1" parent="1">
          <mxGeometry x="370" y="628" width="40" height="30" as="geometry" />
        </mxCell>
        <mxCell id="UfaDsOOgGRpem-yaCqwn-33" value="" style="edgeStyle=orthogonalEdgeStyle;rounded=0;orthogonalLoop=1;jettySize=auto;html=1;" edge="1" parent="1" source="UfaDsOOgGRpem-yaCqwn-31" target="UfaDsOOgGRpem-yaCqwn-10">
          <mxGeometry relative="1" as="geometry" />
        </mxCell>
        <mxCell id="UfaDsOOgGRpem-yaCqwn-31" value="printf(&quot;El numero %i es positivo!!!\n&quot;, numero);" style="shape=document;whiteSpace=wrap;html=1;boundedLbl=1;" vertex="1" parent="1">
          <mxGeometry x="280" y="670" width="220" height="40" as="geometry" />
        </mxCell>
        <mxCell id="UfaDsOOgGRpem-yaCqwn-34" value="Ejercicio 9" style="text;html=1;align=center;verticalAlign=middle;resizable=0;points=[];autosize=1;strokeColor=none;fillColor=none;" vertex="1" parent="1">
          <mxGeometry x="30" y="38" width="80" height="30" as="geometry" />
        </mxCell>
      </root>
    </mxGraphModel>
  </diagram>
</mxfile>
